Coordinates
version=1
nRows=26
nColumns=24
inDegrees=yes

Units are S.I. units (second, meters, Newtons, ...)
Angles are in degrees.

endheader
time	pelvis_tilt	pelvis_list	pelvis_rotation	pelvis_tx	pelvis_ty	pelvis_tz	hip_flexion_r	hip_adduction_r	hip_rotation_r	knee_angle_r	ankle_angle_r	subtalar_angle_r	mtp_angle_r	hip_flexion_l	hip_adduction_l	hip_rotation_l	knee_angle_l	ankle_angle_l	subtalar_angle_l	mtp_angle_l	lumbar_extension	lumbar_bending	lumbar_rotation
      5.20500000	     33.23190687	      0.41452221	      1.33191909	      0.67070975	      0.65355019	     -0.25530122	    -53.26506472	      2.06985662	     -7.27979520	    -12.30627231	     18.45820816	     18.13382170	      0.00000000	    -13.62054729	      0.57609992	     -9.07735995	      0.58547440	      2.56546876	     16.40304034	      0.00000000	    -62.17293624	     -0.86335709	      2.87041955
      5.21000000	     33.46860499	      0.63630711	      1.10422076	      0.67719643	      0.65330803	     -0.25561913	    -53.28200239	      1.55644288	     -7.38357375	    -13.91304469	     17.82136881	     18.37855944	      0.00000000	    -13.74212931	      0.86830226	     -8.98665020	     -0.31797461	      1.89221959	     15.84601108	      0.00000000	    -62.35271079	     -1.24611612	      2.70510271
      5.21500000	     33.75164053	      0.95210707	      0.81177322	      0.68380038	      0.65316467	     -0.25587451	    -53.31243272	      0.91810733	     -7.56800394	    -15.58413723	     17.09476256	     18.67978951	      0.00000000	    -13.87361532	      1.28119786	     -8.80630060	     -1.47572616	      1.40656271	     14.90934440	      0.00000000	    -62.55392487	     -1.76654432	      2.59106344
      5.22000000	     34.03686714	      1.27946903	      0.54265062	      0.69033807	      0.65311913	     -0.25615409	    -53.23454710	      0.27654248	     -7.82146844	    -17.42451185	     16.23795938	     18.93261673	      0.00000000	    -13.97068321	      1.70214131	     -8.61467343	     -2.79577078	      0.99335544	     14.01290786	      0.00000000	    -62.77162079	     -2.25617516	      2.38227919
      5.22500000	     34.31860406	      1.63928055	      0.29860937	      0.69685664	      0.65313812	     -0.25647207	    -53.06624216	     -0.38468959	     -8.14483593	    -19.39485251	     15.25681982	     19.14829657	      0.00000000	    -14.02410689	      2.16178986	     -8.36866248	     -4.28204047	      0.72609366	     13.01279793	      0.00000000	    -62.99535745	     -2.74895087	      2.14279124
      5.23000000	     34.58875747	      2.01152518	      0.06618095	      0.70336536	      0.65321967	     -0.25682089	    -52.80356200	     -1.06381135	     -8.51741596	    -21.47233127	     14.16014876	     19.29202422	      0.00000000	    -14.03624326	      2.64205922	     -8.05208227	     -5.90391273	      0.60707115	     11.96426228	      0.00000000	    -63.20615743	     -3.22073965	      1.86940889
      5.23500000	     34.84667203	      2.39171604	     -0.12859521	      0.70986176	      0.65334283	     -0.25720969	    -52.45215820	     -1.73466209	     -8.93249982	    -23.64287121	     12.95087246	     19.33909675	      0.00000000	    -14.01498596	      3.13413599	     -7.68586671	     -7.62899567	      0.65888351	     10.90627737	      0.00000000	    -63.40031889	     -3.66599404	      1.57223099
      5.24000000	     35.07701076	      2.77056274	     -0.27683653	      0.71635331	      0.65348763	     -0.25767965	    -52.00570067	     -2.39189916	     -9.40098199	    -25.88303259	     11.64863391	     19.26253434	      0.00000000	    -13.95217805	      3.63116636	     -7.23730206	     -9.43054190	      0.88481716	      9.84592010	      0.00000000	    -63.55889690	     -4.05499510	      1.25267055
      5.24500000	     35.28441350	      3.14463142	     -0.37963211	      0.72284010	      0.65365036	     -0.25820075	    -51.47275312	     -3.02588810	     -9.87751500	    -28.18245654	     10.27776776	     19.03208794	      0.00000000	    -13.87642615	      4.12703311	     -6.75912409	    -11.25180540	      1.27965239	      8.84972082	      0.00000000	    -63.68953614	     -4.39842070	      0.92239675
      5.25000000	     35.46176323	      3.48985956	     -0.45317512	      0.72933335	      0.65382858	     -0.25879601	    -50.85836270	     -3.64279382	    -10.37152381	    -30.50677260	      8.87453417	     18.63788929	      0.00000000	    -13.78399542	      4.60177366	     -6.23818077	    -13.08527225	      1.83376453	      7.94215284	      0.00000000	    -63.77327921	     -4.68161975	      0.59431086
      5.25500000	     35.47266192	      3.81531242	     -0.32335664	      0.73578756	      0.65390295	     -0.25958322	    -50.01746044	     -4.11621891	    -10.94607214	    -32.87787215	      7.49259718	     18.17657611	      0.00000000	    -13.49263967	      5.01916194	     -5.51890341	    -14.96679141	      2.61202223	      7.17356207	      0.00000000	    -63.69374215	     -4.78845447	      0.23487452
      5.26000000	     35.65570063	      4.10361372	     -0.40162517	      0.74226906	      0.65414748	     -0.26022549	    -49.31306687	     -4.72201409	    -11.34127106	    -35.22628267	      6.15196785	     17.41132800	      0.00000000	    -13.52527800	      5.46248274	     -5.05219695	    -16.61986078	      3.39612676	      6.48094609	      0.00000000	    -63.75155371	     -5.01590655	     -0.02172515
      5.26500000	     35.89895676	      4.39462730	     -0.53417405	      0.74879921	      0.65445667	     -0.26084855	    -48.66003167	     -5.38332050	    -11.72474296	    -37.52908710	      4.91937392	     16.45306043	      0.00000000	    -13.72646546	      5.92942768	     -4.71458158	    -18.09354082	      4.25149977	      5.87093199	      0.00000000	    -63.83877572	     -5.26672086	     -0.27444687
      5.27000000	     35.88781864	      4.54316746	     -0.43837373	      0.75516711	      0.65464187	     -0.26173968	    -47.65836540	     -5.79123057	    -12.06880065	    -39.86171342	      3.77229798	     15.40758201	      0.00000000	    -13.60231600	      6.20673039	     -4.12366301	    -19.64961639	      5.29554136	      5.38073645	      0.00000000	    -63.68702794	     -5.23508900	     -0.44868491
      5.27500000	     36.14789924	      4.79754466	     -0.57411140	      0.76169480	      0.65502605	     -0.26241437	    -46.99023593	     -6.43396755	    -12.35868974	    -42.06268031	      2.84885858	     14.18792827	      0.00000000	    -13.97586895	      6.65197836	     -3.76757312	    -20.83698731	      6.23434391	      4.94594776	      0.00000000	    -63.74555180	     -5.44447860	     -0.66786649
      5.28000000	     36.34471026	      4.95746703	     -0.63202341	      0.76809668	      0.65542646	     -0.26317130	    -46.20639867	     -6.94191811	    -12.56946352	    -44.22856611	      2.04972372	     12.80670410	      0.00000000	    -14.33080537	      6.97953992	     -3.38669562	    -21.90753511	      7.25161255	      4.58040434	      0.00000000	    -63.75548174	     -5.51686822	     -0.80571390
      5.28500000	     36.34089728	      4.95594274	     -0.61185060	      0.77439261	      0.65577896	     -0.26403858	    -45.12727037	     -7.26704523	    -12.61929801	    -46.38794061	      1.38013918	     11.36876592	      0.00000000	    -14.48177415	      7.11840340	     -2.99321416	    -22.94281989	      8.38995135	      4.40788932	      0.00000000	    -63.55531489	     -5.42136331	     -0.81091735
      5.29000000	     36.57466318	      5.10842190	     -0.68720297	      0.78076262	      0.65629182	     -0.26477582	    -44.38103588	     -7.75634677	    -12.74412840	    -48.38343712	      1.02811471	      9.89484948	      0.00000000	    -15.05301704	      7.43760729	     -2.66803773	    -23.65685225	      9.33066839	      4.14918907	      0.00000000	    -63.57264253	     -5.49586705	     -0.96580825
      5.29500000	     36.65679264	      5.03995535	     -0.74142285	      0.78700592	      0.65681867	     -0.26555520	    -43.37286463	     -8.02763604	    -12.60722784	    -50.34701878	      0.71350791	      8.34596808	      0.00000000	    -15.48688047	      7.51462600	     -2.39345819	    -24.30937769	     10.41686199	      4.10538124	      0.00000000	    -63.42550064	     -5.39676233	     -0.88906529
      5.30000000	     36.87516807	      5.09651854	     -0.79407934	      0.79322541	      0.65745373	     -0.26630048	    -42.57240546	     -8.38328400	    -12.59615739	    -52.16809585	      0.66007814	      6.82460607	      0.00000000	    -16.17167872	      7.71392056	     -2.13366771	    -24.73641238	     11.27866679	      3.95871033	      0.00000000	    -63.42490818	     -5.37384612	     -0.98423005
      5.30500000	     36.97937321	      4.94930450	     -0.88350814	      0.79937329	      0.65811734	     -0.26699792	    -41.56187884	     -8.55625349	    -12.30947602	    -53.93699072	      0.69010734	      5.33548179	      0.00000000	    -16.77749287	      7.70097099	     -1.98420175	    -25.07162046	     12.27808837	      4.01282066	      0.00000000	    -63.29113296	     -5.25083967	     -0.83171938
      5.31000000	     37.19123649	      4.92784861	     -0.91968590	      0.80546555	      0.65888335	     -0.26767834	    -40.73163234	     -8.77880015	    -12.18636743	    -55.55537157	      0.87239177	      3.91448772	      0.00000000	    -17.57220947	      7.79492885	     -1.76680234	    -25.23923376	     13.02228330	      3.95453030	      0.00000000	    -63.28397380	     -5.16510749	     -0.89975191
      5.31500000	     37.30366467	      4.71469940	     -1.02718047	      0.81145699	      0.65967107	     -0.26828301	    -39.70219350	     -8.84493973	    -11.78774940	    -57.12457964	      1.17954334	      2.61179981	      0.00000000	    -18.29611850	      7.69840017	     -1.72918356	    -25.31691353	     13.86721550	      4.08438380	      0.00000000	    -63.17026416	     -5.01415111	     -0.69328549
      5.32000000	     37.50745294	      4.64359602	     -1.02508458	      0.81744828	      0.66054935	     -0.26889475	    -38.86204120	     -8.93651551	    -11.60652396	    -58.51774263	      1.51877062	      1.40275411	      0.00000000	    -19.17929539	      7.70886689	     -1.53483035	    -25.26560627	     14.49787472	      4.08281942	      0.00000000	    -63.15596639	     -4.87214573	     -0.77625477
      5.32500000	     37.67382753	      4.47198840	     -1.03963367	      0.82334621	      0.66146848	     -0.26941611	    -37.94325855	     -8.90953725	    -11.30227485	    -59.81955158	      1.93644055	      0.32033725	      0.00000000	    -20.05204747	      7.60160039	     -1.43426053	    -25.13690455	     15.13261620	      4.20628416	      0.00000000	    -63.11177807	     -4.69153302	     -0.73749724
      5.33000000	     37.80763381	      4.27221410	     -1.08205737	      0.82917745	      0.66240135	     -0.26988525	    -36.96634875	     -8.85880358	    -10.95380312	    -61.04236951	      2.43022828	     -0.55050782	      0.00000000	    -20.91893591	      7.46633562	     -1.42264686	    -24.92783327	     15.71569598	      4.35807276	      0.00000000	    -63.04387190	     -4.51555663	     -0.65062301
